{
  "source": "C:\\Users\\Peter\\Desktop\\stuff\\MIUN\\quantitative_research\\video_compression\\videos\\HEVC_CLASS_B\\Kimono_1920x1080_24.y4m",
  "output": "C:\\Users\\Peter\\Desktop\\stuff\\MIUN\\quantitative_research\\video_compression\\compressed_videos\\HEVC_CLASS_B\\vp9\\8\\Kimono_1920x1080_24_vp9.webm",
  "codec": "vp9",
  "ok": "Input #0, yuv4mpegpipe, from 'C:\\Users\\Peter\\Desktop\\stuff\\MIUN\\quantitative_research\\video_compression\\videos\\HEVC_CLASS_B\\Kimono_1920x1080_24.y4m':\n  Duration: 00:00:10.00, start: 0.000000, bitrate: 597198 kb/s\n  Stream #0:0: Video: rawvideo (I420 / 0x30323449), yuv420p(progressive), 1920x1080, 24 fps, 24 tbr, 24 tbn\n[out#0/webm @ 000001b87c529b00] Codec AVOption b:a (set bitrate (in bits/s)) has not been used for any stream. The most likely reason is either wrong type (e.g. a video option with no video streams) or that it is a private option of some decoder which was not actually used for any stream.\nStream mapping:\n  Stream #0:0 -> #0:0 (rawvideo (native) -> vp9 (libvpx-vp9))\nPress [q] to stop, [?] for help\n[libvpx-vp9 @ 000001b87c52bf40] v1.15.2-100-g40561f514\nOutput #0, webm, to 'C:\\Users\\Peter\\Desktop\\stuff\\MIUN\\quantitative_research\\video_compression\\compressed_videos\\HEVC_CLASS_B\\vp9\\8\\Kimono_1920x1080_24_vp9.webm':\n  Metadata:\n    encoder         : Lavf62.3.100\n  Stream #0:0: Video: vp9, yuv420p(tv, progressive), 1920x1080, q=2-31, 8000 kb/s, 24 fps, 1k tbn\n    Metadata:\n      encoder         : Lavc62.11.100 libvpx-vp9\n    Side data:\n      cpb: bitrate max/min/avg: 0/0/0 buffer size: 8000000 vbv_delay: N/A\nframe=    1 fps=0.0 q=12.0 size=       0KiB time=00:00:00.04 bitrate=  92.5kbits/s speed=0.0809x elapsed=0:00:00.51    \nframe=    6 fps=5.9 q=36.0 size=       0KiB time=00:00:00.25 bitrate=  15.4kbits/s speed=0.244x elapsed=0:00:01.02    \nframe=   10 fps=6.4 q=33.0 size=       0KiB time=00:00:00.41 bitrate=   9.3kbits/s speed=0.268x elapsed=0:00:01.55    \nframe=   13 fps=6.2 q=31.0 size=       0KiB time=00:00:00.54 bitrate=   7.1kbits/s speed=0.26x elapsed=0:00:02.08    \nframe=   17 fps=6.5 q=32.0 size=       0KiB time=00:00:00.70 bitrate=   5.4kbits/s speed=0.271x elapsed=0:00:02.61    \nframe=   20 fps=6.4 q=32.0 size=       0KiB time=00:00:00.83 bitrate=   4.6kbits/s speed=0.266x elapsed=0:00:03.13    \nframe=   24 fps=6.5 q=31.0 size=       0KiB time=00:00:01.00 bitrate=   3.9kbits/s speed=0.273x elapsed=0:00:03.66    \nframe=   27 fps=6.5 q=30.0 size=       0KiB time=00:00:01.12 bitrate=   3.4kbits/s speed=0.269x elapsed=0:00:04.18    \nframe=   30 fps=6.4 q=30.0 size=       0KiB time=00:00:01.25 bitrate=   3.1kbits/s speed=0.266x elapsed=0:00:04.69    \nframe=   34 fps=6.5 q=29.0 size=       0KiB time=00:00:01.41 bitrate=   2.7kbits/s speed=0.271x elapsed=0:00:05.23    \nframe=   38 fps=6.6 q=30.0 size=       0KiB time=00:00:01.58 bitrate=   2.4kbits/s speed=0.274x elapsed=0:00:05.78    \nframe=   41 fps=6.5 q=17.0 size=       0KiB time=00:00:01.70 bitrate=   2.3kbits/s speed=0.271x elapsed=0:00:06.30    \nframe=   44 fps=6.4 q=28.0 size=       0KiB time=00:00:01.83 bitrate=   2.1kbits/s speed=0.268x elapsed=0:00:06.82    \nframe=   48 fps=6.5 q=29.0 size=       0KiB time=00:00:02.00 bitrate=   1.9kbits/s speed=0.272x elapsed=0:00:07.34    \nframe=   51 fps=6.5 q=29.0 size=       0KiB time=00:00:02.12 bitrate=   1.8kbits/s speed=0.27x elapsed=0:00:07.86    \nframe=   55 fps=6.6 q=28.0 size=       0KiB time=00:00:02.29 bitrate=   1.7kbits/s speed=0.273x elapsed=0:00:08.38    \nframe=   58 fps=6.5 q=29.0 size=       0KiB time=00:00:02.41 bitrate=   1.6kbits/s speed=0.271x elapsed=0:00:08.91    \nframe=   61 fps=6.5 q=26.0 size=       0KiB time=00:00:02.54 bitrate=   1.5kbits/s speed=0.269x elapsed=0:00:09.44    \nframe=   65 fps=6.5 q=26.0 size=       0KiB time=00:00:02.70 bitrate=   1.4kbits/s speed=0.272x elapsed=0:00:09.96    \nframe=   68 fps=6.5 q=26.0 size=       0KiB time=00:00:02.83 bitrate=   1.4kbits/s speed=0.27x elapsed=0:00:10.48    \nframe=   72 fps=6.5 q=28.0 size=       0KiB time=00:00:03.00 bitrate=   1.3kbits/s speed=0.272x elapsed=0:00:11.02    \nframe=   75 fps=6.5 q=15.0 size=       0KiB time=00:00:03.12 bitrate=   1.2kbits/s speed=0.271x elapsed=0:00:11.53    \nframe=   79 fps=6.5 q=28.0 size=       0KiB time=00:00:03.29 bitrate=   1.2kbits/s speed=0.273x elapsed=0:00:12.06    \nframe=   82 fps=6.5 q=28.0 size=       0KiB time=00:00:03.41 bitrate=   1.1kbits/s speed=0.271x elapsed=0:00:12.59    \nframe=   86 fps=6.6 q=28.0 size=       0KiB time=00:00:03.58 bitrate=   1.1kbits/s speed=0.273x elapsed=0:00:13.11    \nframe=   90 fps=6.6 q=28.0 size=       0KiB time=00:00:03.75 bitrate=   1.0kbits/s speed=0.274x elapsed=0:00:13.66    \nframe=   93 fps=6.5 q=15.0 size=       0KiB time=00:00:03.87 bitrate=   1.0kbits/s speed=0.273x elapsed=0:00:14.19    \nframe=   97 fps=6.6 q=27.0 size=       0KiB time=00:00:04.04 bitrate=   1.0kbits/s speed=0.275x elapsed=0:00:14.71    \nframe=  100 fps=6.6 q=27.0 size=       0KiB time=00:00:04.16 bitrate=   0.9kbits/s speed=0.274x elapsed=0:00:15.23    \nframe=  104 fps=6.6 q=27.0 size=       0KiB time=00:00:04.33 bitrate=   0.9kbits/s speed=0.275x elapsed=0:00:15.77    \nframe=  107 fps=6.6 q=27.0 size=       0KiB time=00:00:04.45 bitrate=   0.9kbits/s speed=0.274x elapsed=0:00:16.29    \nframe=  110 fps=6.5 q=27.0 size=       0KiB time=00:00:04.58 bitrate=   0.8kbits/s speed=0.273x elapsed=0:00:16.81    \nframe=  114 fps=6.6 q=26.0 size=       0KiB time=00:00:04.75 bitrate=   0.8kbits/s speed=0.274x elapsed=0:00:17.34    \nframe=  117 fps=6.5 q=26.0 size=       0KiB time=00:00:04.87 bitrate=   0.8kbits/s speed=0.273x elapsed=0:00:17.87    \nframe=  120 fps=6.5 q=27.0 size=       0KiB time=00:00:05.00 bitrate=   0.8kbits/s speed=0.272x elapsed=0:00:18.39    \nframe=  124 fps=6.6 q=26.0 size=    4096KiB time=00:00:05.16 bitrate=6494.4kbits/s speed=0.273x elapsed=0:00:18.91    \nframe=  128 fps=6.6 q=26.0 size=    4096KiB time=00:00:05.33 bitrate=6291.5kbits/s speed=0.274x elapsed=0:00:19.44    \nframe=  131 fps=6.6 q=27.0 size=    4352KiB time=00:00:05.45 bitrate=6531.6kbits/s speed=0.273x elapsed=0:00:19.97    \nframe=  135 fps=6.6 q=14.0 size=    4352KiB time=00:00:05.62 bitrate=6338.1kbits/s speed=0.275x elapsed=0:00:20.48    \nframe=  138 fps=6.6 q=25.0 size=    4352KiB time=00:00:05.75 bitrate=6200.3kbits/s speed=0.274x elapsed=0:00:21.00    \nframe=  141 fps=6.5 q=25.0 size=    4352KiB time=00:00:05.87 bitrate=6068.4kbits/s speed=0.273x elapsed=0:00:21.54    \nframe=  144 fps=6.5 q=25.0 size=    4352KiB time=00:00:06.00 bitrate=5941.9kbits/s speed=0.272x elapsed=0:00:22.05    \nframe=  148 fps=6.6 q=21.0 size=    4352KiB time=00:00:06.16 bitrate=5781.3kbits/s speed=0.273x elapsed=0:00:22.58    \nframe=  152 fps=6.6 q=21.0 size=    4352KiB time=00:00:06.33 bitrate=5629.2kbits/s speed=0.274x elapsed=0:00:23.11    \nframe=  154 fps=6.5 q=22.0 size=    4352KiB time=00:00:06.41 bitrate=5556.1kbits/s speed=0.271x elapsed=0:00:23.64    \nframe=  157 fps=6.5 q=20.0 size=    4352KiB time=00:00:06.54 bitrate=5449.9kbits/s speed=0.271x elapsed=0:00:24.17    \nframe=  161 fps=6.5 q=22.0 size=    4352KiB time=00:00:06.70 bitrate=5314.5kbits/s speed=0.272x elapsed=0:00:24.70    \nframe=  164 fps=6.5 q=23.0 size=    4352KiB time=00:00:06.83 bitrate=5217.3kbits/s speed=0.271x elapsed=0:00:25.23    \nframe=  167 fps=6.5 q=19.0 size=    4352KiB time=00:00:06.95 bitrate=5123.6kbits/s speed=0.27x elapsed=0:00:25.78    \nframe=  171 fps=6.5 q=21.0 size=    4352KiB time=00:00:07.12 bitrate=5003.7kbits/s speed=0.271x elapsed=0:00:26.30    \nframe=  174 fps=6.5 q=22.0 size=    4352KiB time=00:00:07.25 bitrate=4917.5kbits/s speed=0.27x elapsed=0:00:26.84    \nframe=  177 fps=6.5 q=19.0 size=    4352KiB time=00:00:07.37 bitrate=4834.1kbits/s speed=0.269x elapsed=0:00:27.38    \nframe=  181 fps=6.5 q=21.0 size=    4352KiB time=00:00:07.54 bitrate=4727.3kbits/s speed=0.27x elapsed=0:00:27.91    \nframe=  184 fps=6.5 q=21.0 size=    4352KiB time=00:00:07.66 bitrate=4650.2kbits/s speed=0.269x elapsed=0:00:28.45    \nframe=  186 fps=6.4 q=21.0 size=    4352KiB time=00:00:07.75 bitrate=4600.2kbits/s speed=0.267x elapsed=0:00:28.98    \nframe=  190 fps=6.4 q=20.0 size=    4352KiB time=00:00:07.91 bitrate=4503.4kbits/s speed=0.268x elapsed=0:00:29.50    \nframe=  194 fps=6.5 q=21.0 size=    4352KiB time=00:00:08.08 bitrate=4410.5kbits/s speed=0.269x elapsed=0:00:30.03    \nframe=  196 fps=6.4 q=21.0 size=    4352KiB time=00:00:08.16 bitrate=4365.5kbits/s speed=0.267x elapsed=0:00:30.58    \nframe=  200 fps=6.4 q=19.0 size=    4352KiB time=00:00:08.33 bitrate=4278.2kbits/s speed=0.268x elapsed=0:00:31.11    \nframe=  203 fps=6.4 q=20.0 size=    4352KiB time=00:00:08.45 bitrate=4215.0kbits/s speed=0.267x elapsed=0:00:31.63    \nframe=  206 fps=6.4 q=20.0 size=    4352KiB time=00:00:08.58 bitrate=4153.6kbits/s speed=0.267x elapsed=0:00:32.15    \nframe=  209 fps=6.4 q=18.0 size=    4352KiB time=00:00:08.70 bitrate=4094.0kbits/s speed=0.266x elapsed=0:00:32.68    \nframe=  212 fps=6.4 q=19.0 size=    4352KiB time=00:00:08.83 bitrate=4036.0kbits/s speed=0.266x elapsed=0:00:33.21    \nframe=  214 fps=6.3 q=19.0 size=    4352KiB time=00:00:08.91 bitrate=3998.3kbits/s speed=0.264x elapsed=0:00:33.73    \nframe=  216 fps=6.3 q=19.0 size=    4352KiB time=00:00:09.00 bitrate=3961.3kbits/s speed=0.263x elapsed=0:00:34.24    \nframe=  216 fps=6.2 q=19.0 size=    4352KiB time=00:00:09.00 bitrate=3961.3kbits/s speed=0.259x elapsed=0:00:34.80    \nframe=  216 fps=6.1 q=19.0 size=    4352KiB time=00:00:09.00 bitrate=3961.3kbits/s speed=0.255x elapsed=0:00:35.32    \nframe=  216 fps=6.0 q=19.0 size=    4352KiB time=00:00:09.00 bitrate=3961.3kbits/s speed=0.251x elapsed=0:00:35.84    \nframe=  216 fps=5.9 q=19.0 size=    4352KiB time=00:00:09.00 bitrate=3961.3kbits/s speed=0.247x elapsed=0:00:36.37    \nframe=  216 fps=5.8 q=19.0 size=    4352KiB time=00:00:09.00 bitrate=3961.3kbits/s speed=0.244x elapsed=0:00:36.92    \nframe=  216 fps=5.8 q=19.0 size=    4352KiB time=00:00:09.00 bitrate=3961.3kbits/s speed=0.24x elapsed=0:00:37.45    \nframe=  216 fps=5.7 q=19.0 size=    4352KiB time=00:00:09.00 bitrate=3961.3kbits/s speed=0.237x elapsed=0:00:37.96    \n[out#0/webm @ 000001b87c529b00] video:9308KiB audio:0KiB subtitle:0KiB other streams:0KiB global headers:0KiB muxing overhead: 0.025830%\nframe=  240 fps=6.3 q=18.0 Lsize=    9311KiB time=00:00:10.00 bitrate=7627.2kbits/s speed=0.262x elapsed=0:00:38.17    \n",
  "seconds": 38.31874179840088,
  "probe_out": {}
}